<?xml version="1.0" standalone="no"?>
<!DOCTYPE svg PUBLIC "-//W3C//DTD SVG 20010904//EN"
 "http://www.w3.org/TR/2001/REC-SVG-20010904/DTD/svg10.dtd">
<svg version="1.0" xmlns="http://www.w3.org/2000/svg"
 width="920.000000pt" height="920.000000pt" viewBox="0 0 920.000000 920.000000"
 preserveAspectRatio="xMidYMid meet">
<metadata>
Created by potrace 1.14, written by Peter Selinger 2001-2017
</metadata>
<g transform="translate(0.000000,920.000000) scale(0.100000,-0.100000)"
fill="#000000" stroke="none">
<path d="M1162 8038 c-16 -16 -18 -3083 -2 -3093 17 -10 1181 -8 1191 2 5 5
10 402 11 948 l3 940 945 5 945 5 3 580 c2 319 0 590 -3 602 l-5 23 -1538 0
c-1183 0 -1541 -3 -1550 -12z"/>
<path d="M4952 8033 c-4 -10 -7 -281 -7 -603 l0 -585 940 -3 c516 -1 943 -6
947 -10 5 -5 9 -430 9 -945 0 -589 4 -939 10 -943 16 -10 1180 -7 1190 3 5 5
8 647 7 1554 l-3 1544 -1543 3 c-1462 2 -1543 1 -1550 -15z"/>
<path d="M3572 5618 c-9 -9 -12 -251 -12 -1029 0 -888 2 -1018 15 -1029 22
-18 2029 -18 2050 0 13 11 15 144 15 1025 0 558 -3 1020 -6 1029 -6 14 -105
16 -1028 16 -782 0 -1025 -3 -1034 -12z"/>
<path d="M1180 4240 l-25 -6 -3 -1542 c-2 -1462 -1 -1542 16 -1551 10 -5 609
-9 1544 -9 1205 0 1530 3 1538 13 7 8 9 207 8 601 l-3 589 -945 5 -945 5 -3
940 c-1 605 -6 943 -12 949 -11 11 -1126 17 -1170 6z"/>
<path d="M6875 4240 l-30 -5 -3 -948 -2 -947 -948 -2 -947 -3 -2 -592 c-3
-554 -2 -593 15 -602 23 -12 3051 -12 3074 0 17 9 18 87 18 1549 0 1213 -3
1540 -12 1546 -14 9 -1117 13 -1163 4z"/>
</g>
</svg>
